<svg width="402" height="222" viewBox="0 0 402 222" fill="none" xmlns="http://www.w3.org/2000/svg">
<mask id="mask0_123_5701" style="mask-type:alpha" maskUnits="userSpaceOnUse" x="0" y="0" width="402" height="222">
<rect y="-6.10352e-05" width="402" height="221.615" rx="18" fill="#FCF7F0"/>
<rect y="-6.10352e-05" width="402" height="221.615" rx="18" fill="#F4310B"/>
</mask>
<g mask="url(#mask0_123_5701)">
<path d="M378.902 133.484C373.404 138.448 367.874 142.887 355.284 145.648C342.695 148.41 334.229 143.183 333.448 139.895C332.667 136.574 335.447 137.659 340.539 136.18C347.068 134.273 352.816 131.709 359.471 125.495C368.155 117.407 368.624 102.086 347.412 112.804C338.883 117.111 330.542 124.377 325.044 132.596C318.827 141.868 316.328 141.605 316.578 135.391C316.922 126.974 311.08 119.873 307.581 117.341C305.363 115.73 309.768 111.358 307.987 109.319C306.956 108.136 305.113 109.352 303.176 110.897C296.772 115.928 285.432 125.33 276.528 132.235C272.186 135.621 263.939 141.67 257.628 142.788C252.13 143.774 248.381 140.224 254.067 133.155C258.284 127.862 269.218 120.169 270.78 115.434C272.311 110.766 268.125 107.182 264.314 109.221C258.066 112.541 246.632 128.388 242.008 133.747C234.042 142.985 224.139 144.695 216.798 141.703C213.33 140.289 211.237 136.311 213.486 131.972C216.329 126.481 228.606 121.878 231.137 115.763C233.667 109.615 228.013 106.623 223.202 109.813C220.265 111.752 217.422 114.152 214.829 116.848C211.955 118.887 208.456 119.577 205.895 119.281C199.709 118.525 195.554 115.171 193.617 113.297C187.744 107.708 179.778 108.267 174.374 110.076C165.345 113.133 156.692 118.591 150.538 126.35C137.011 143.413 146.476 161.627 167.438 158.503C182.527 156.268 196.804 142.657 198.991 126.547C202.958 125.758 206.613 124.607 209.581 123.226C206.457 127.73 204.02 132.728 202.74 137.922C199.491 151.073 207.082 159.523 217.797 158.109C228.044 156.728 234.698 148.147 239.728 140.52C237.666 152.553 242.039 160.081 252.13 158.865C262.377 157.616 269.249 147.391 277.341 139.172C284.213 132.202 289.149 128.421 293.304 125.955C297.084 123.752 305.863 131.183 306.081 139.172C306.269 146.01 302.52 148.903 297.615 148.706C293.273 148.542 292.336 137.922 284.588 139.435C278.028 140.717 275.185 147.884 279.09 154.361C282.839 160.575 295.054 161.101 304.488 153.999C311.955 148.41 319.077 137.791 321.639 147.818C323.607 155.479 332.823 161.824 348.786 157.714C362.095 154.295 369.967 147.753 374.185 142.788C376.653 139.895 384.431 128.421 378.902 133.385V133.484ZM336.103 127.04C341.601 120.826 350.473 117.604 350.38 121.845C350.286 125.561 346.256 128.98 342.445 130.426C338.446 131.939 331.042 132.728 336.103 127.007V127.04ZM170.281 142.098C158.597 138.974 156.879 126.12 166.314 117.966C171.062 113.856 178.622 112.245 180.809 112.377C182.965 112.508 182.059 114.054 181.153 117.604C180.278 121.155 180.028 125.593 185.058 126.744C186.651 127.106 191.868 127.237 194.93 126.81C191.618 139.5 180.247 144.761 170.25 142.065L170.281 142.098Z" fill="#F34B03"/>
<path d="M184.809 159.658C173.344 171.789 153.1 171.954 141.947 166.2C133.95 162.091 118.892 146.967 128.077 115.701C163.316 108.14 177.936 93.8382 184.809 83.6134C191.682 73.3887 193.681 58.4625 185.871 53.1693C178.186 47.9748 151.382 48.1391 125.953 100.315C117.58 101.696 104.178 103.405 92.2134 105.115C98.805 89.86 106.865 71.3503 108.396 67.5694C111.051 60.9283 110.582 57.8707 107.958 56.9502C104.991 55.931 97.8366 51.9858 96.8056 51.8214C95.806 51.657 95.0562 51.6241 93.0256 55.5036C90.6514 60.0735 84.5596 65.5639 78.0304 67.6352C71.0327 69.8708 68.0961 69.838 68.7834 72.0407C69.4707 74.2435 73.7505 82.5613 75.5625 83.7778C77.3744 85.0271 83.6536 85.1915 87.1525 84.8299C90.6514 84.4682 91.2762 85.1586 90.0891 89.2025C89.3705 91.6354 86.2778 98.9012 82.9976 106.529C47.3215 112.611 32.9823 128.589 26.0783 138.847C19.2055 149.071 17.2374 163.998 25.0474 169.291C32.7324 174.485 59.5363 174.255 84.872 122.047C92.3696 120.764 110.801 118.529 120.829 117.016C117.487 126.847 114.55 139.077 115.268 152.556C115.643 159.559 119.205 183.231 138.542 188.557C163.909 195.56 181.872 176.228 186.402 159.658C187.308 156.37 186.121 158.211 184.777 159.658H184.809ZM182.403 58.9557C187.027 62.4406 185.933 71.6462 179.998 79.5695C172.313 89.86 149.789 97.5861 134.762 99.6902C145.415 73.8161 170.813 50.2433 182.403 58.9557ZM28.515 163.504C23.8915 160.02 24.9537 150.847 30.8893 142.858C38.5431 132.534 61.0671 124.808 76.0935 122.671C65.5032 148.578 40.1051 172.184 28.515 163.472V163.504Z" fill="#F34B03"/>
</g>
</svg>
