<svg width="288" height="288" viewBox="0 0 288 288" fill="none" xmlns="http://www.w3.org/2000/svg">
<path d="M144 0C155.635 0 166.947 1.38124 177.783 3.98633L170.911 85.4746C169.813 98.4887 159.489 108.813 146.475 109.911L15 121L146.475 132.089C159.489 133.187 169.813 143.511 170.911 156.525L181.582 283.045C169.601 286.275 157.002 288 144 288C64.471 288 0 223.529 0 144C0 64.471 64.471 0 144 0ZM286.912 126.236C287.628 132.057 288 137.985 288 144C288 210.217 243.305 265.992 182.438 282.81L193.089 156.525C194.187 143.511 204.511 133.187 217.525 132.089L286.912 126.236ZM186.415 6.34961C236.418 21.7391 274.808 63.6245 285.201 115.618L217.525 109.911C204.511 108.813 194.187 98.4887 193.089 85.4746L186.415 6.34961Z" fill="white"/>
</svg>
